<svg xmlns="http://www.w3.org/2000/svg" width="256" height="160" viewBox="0 0 256 160">
<defs><linearGradient id="soil" x2="0" y2="1"><stop stop-color="#936035"/><stop offset="1" stop-color="#493b2b"/></linearGradient><linearGradient id="grass" x2="0" y2="1"><stop stop-color="#aacb59"/><stop offset="1" stop-color="#49733c"/></linearGradient></defs>
<path fill="url(#soil)" d="M0 5h256v155H0z"/>
<g fill="none" stroke="#b07d47" stroke-width="3" opacity=".45"><path d="M0 49Q36 37 73 49t70 0 80 0 33 0M0 106q50-14 94 1t76-3 86 4M28 70l15 5m91-5 18 4m58 58 26-3M64 141l25 5"/></g>
<g fill="#d0a36a" opacity=".3"><ellipse cx="40" cy="95" rx="8" ry="4"/><ellipse cx="175" cy="53" rx="11" ry="5"/><ellipse cx="117" cy="127" rx="7" ry="3"/><ellipse cx="228" cy="86" rx="5" ry="3"/></g>
<path d="M0 0h256v18q-12 15-25 0-12 17-25 1-12 15-25-1-12 20-25 1-12 15-25-1-12 15-25 1-12 14-25-1-12 17-25 1-12 14-25-1Q12 33 0 18Z" fill="#345338" opacity=".7" transform="translate(0 6)"/>
<path d="M0 0h256v14q-12 15-25 0-12 17-25 1-12 15-25-1-12 20-25 1-12 15-25-1-12 15-25 1-12 14-25-1-12 17-25 1-12 14-25-1Q12 29 0 14Z" fill="url(#grass)"/>
<path d="M0 3h256" stroke="#d9df7a" stroke-width="4"/>
<g stroke="#c4db70" stroke-width="2" opacity=".8"><path d="m18 13 4-7 4 6m46 1 5-7 4 5m42 3 5-7 3 7m48-2 4-7 3 6m42 1 5-7 4 6"/></g></svg>
